<svg aria-hidden="true" height="63" viewBox="0 0 375 459" width="80" className="monogram-light dark:monogram-dark"><path d="M208.9 0.399978C208.4 0.899978 200.1 2.29998 198 2.19998C196.1 2.09998 190 3.79998 173 9.09998C142.5 18.6 122.3 31.1 96.8 56.3C90.4 62.6 84.2 69.7 83.1 71.9C81.9 74.1 80.2 76.7 79.2 77.7C76.8 80.1 69.7 91.6 68 96C67.3 97.9 65.9 100.6 65 102C59.3 110.9 55.9 126 55.6 144C55.5 149.8 55.1 155.1 54.6 155.9C53.3 158 53.6 168.3 55 171.1C57.5 175.9 59 176.9 62.7 176.3C65 175.9 66.5 176.1 67 177C68.2 178.9 71.7 176 74.5 170.8C79.2 161.8 85.1 151.5 86.5 149.9C87.3 149.1 88 147.9 88 147.4C88 146.8 89.6 144.5 91.5 142.3C94.3 139 96 138 101.2 136.7C106.9 135.3 120.6 133.4 122.1 133.8C122.5 133.9 124.3 134.1 126.1 134.3C130 134.7 141.3 140.1 145 143.3C149 146.8 152 151.6 152 154.5C152 156.9 151.9 157 150.4 155.6C149.6 154.7 149.1 153.6 149.4 153.1C150.2 151.9 146 150.9 143.2 151.7C140.8 152.3 140.3 151.1 142.3 149.1C143.3 148 143 147.8 141 148.3C137.6 149.1 134 148.1 134 146.4C134 144.8 133.1 144.7 131 146C130.1 146.5 129.3 146.5 129 145.9C128.6 145.4 126.7 144.9 124.7 144.8C122.7 144.7 121 144.2 121 143.6C121 143 120.6 143 119.8 143.8C118.9 144.7 118.4 144.5 117.4 143.2C116.3 141.7 115.8 141.7 113.9 142.8C112.7 143.6 111.5 143.8 111.1 143.3C110.3 142.1 106 141.9 106 143C106 143.4 107.7 144.3 109.8 144.9L113.5 145.9L109.5 145.3C104.1 144.4 97.9 144.8 96.3 146.2C94 148 92 157.1 91.5 167.5C91 177.9 91.6 176.8 93.9 162.7C94.6 158.9 95.8 154.1 96.6 152L98.2 148.1L103.8 148.6C112.4 149.3 119 151.5 131.2 157.7C142.3 163.3 151 170.2 151 173.5C151 175.6 150.2 175.4 147.1 172.5C145.7 171.1 143.1 168.7 141.3 167C139.6 165.4 137.5 164 136.8 164C136 164 134.5 163.1 133.5 162C132.4 160.8 130.4 160 128.6 160C124 160 121 158.9 121 157.4C121 154.9 118.6 155.9 116.4 159.3L114.2 162.6L117.1 163.9C119.9 165.1 119.9 165.2 118.5 168C117.7 169.6 117 173 117 175.6V180.4L119 178.2C122.8 174.2 130.7 176.2 135.6 182.4C138.7 186.3 140.1 186.8 141.9 184.7C142.7 183.7 142.6 183 141.8 182.2C141 181.4 141.1 180.4 142.4 178.6C144.9 174.7 148.5 175.4 149.2 180C149.5 182.2 149.8 182 151.3 178C153.1 173.3 153 174.6 151.1 184.1C150 189.4 145.7 199.2 143.8 200.7C143.1 201.3 139.4 202.3 135.6 203C131.9 203.7 126.6 205.4 124 206.9C118.9 209.6 109.4 217.7 110.3 218.6C110.5 218.9 113.2 218.1 116.1 216.9C123.5 213.9 131.6 212 137.2 212C142 212 144.1 213.3 142.1 215.3C139.9 217.5 140.9 222.6 144.8 228.1L148.6 233.5L155.1 233.4C161.7 233.3 168 231.1 168 228.7C168 228.1 168.4 226.9 168.9 226.1C169.7 224.8 170.1 224.8 171.5 226C174.9 228.9 181.3 239.5 183.4 245.7C185.7 252.9 187.3 253.9 187.8 248.4C188.4 241.4 186.2 231.7 182.1 223.9L178.2 216.3L180.4 210.8C182.5 205.6 186.6 199 187.6 199C187.9 199 187.8 199.4 187.5 200C186.4 201.7 188.1 201.1 189.8 199.1C191.8 196.8 196 195.4 196 196.9C196 197.5 195.6 198 195.1 198C193.7 198 191 205.6 191 209.3C191.1 211 191.7 213.8 192.5 215.5L193.9 218.5L193.3 215.2L192.8 212H198.5C204.4 212 210 214.3 210 216.7C210 218.8 213.9 220.3 215.6 218.9C216.6 218.1 216.8 217.4 216 216.6C214.3 214.9 214.9 211.6 217.1 210.2C218.8 209.1 219.5 209.1 220.8 210.3C221.8 211.1 223.5 212.1 224.6 212.4C226.4 212.9 226.8 212.6 227.3 210.3C228 206.6 226.5 203 224.2 203C223.2 203 221.5 202.1 220.5 201C219.4 199.8 217.4 199 215.4 199C211.2 199 209 198.1 209 196.4C209 195.6 208.4 195 207.6 195C206.8 195 205.8 194.5 205.4 193.9C204 191.5 220 196.8 230.8 202.3C235.9 204.9 247 214.6 247 216.4C247 218.4 239.9 228.9 234.4 235L229.5 240.5L233.6 237.3C239.8 232.5 251 218.7 251 215.9C251 214.4 244.6 207.5 241.1 205.2C238.9 203.8 237.3 202.3 237.6 201.8C237.9 201.4 237.4 200.7 236.5 200.4C234.9 199.7 228.5 188 229.9 188C230.3 188 232.6 190.7 235.1 194C240.1 200.7 242.3 202 238.5 196C236 192.1 236.5 190.4 239.1 193.7C239.9 194.6 242.8 196.8 245.5 198.6C248.3 200.3 251.9 203.3 253.6 205.2C256.2 208 256.7 209.3 256.8 213.5C256.8 216.2 256.3 219.6 255.8 221C255.2 222.4 254.6 224.4 254.5 225.5C254 229 247.7 246.5 246.7 247.1C246.2 247.5 246 248.2 246.4 248.8C246.7 249.4 246.6 250.1 246 250.5C245.5 250.8 245 252.9 245 255.1C245 259 246.2 260.1 247.7 257.7C248.1 257.1 249.3 256.4 250.3 256.4C251.7 256.2 251.8 256.5 250.9 257.6C250.3 258.4 250.1 259 250.6 259C251.8 259 256.4 265.9 255.8 266.6C255.5 266.8 254.1 266.6 252.6 266L250 265L252.2 268C253.7 270.1 255 270.8 256.4 270.5C293.6 262.4 295.7 261.7 315.3 252.6C327.1 247.1 348 233.5 357.1 225.4C360.7 222.1 365.4 217.9 367.6 216C369.8 214.1 372.4 211.1 373.5 209.3C375.2 206.4 375.2 206 373.7 203.7C372.8 202.3 369 199.7 365.3 198C353.5 192.6 340.7 185.8 334 181.5C330.4 179.2 325.3 176.1 322.7 174.5C318.4 172.1 317.3 170.7 312.9 161.8C310.1 156.3 308.1 151.6 308.3 151.3C308.6 151.1 310.8 154.2 313.4 158.2C318.8 166.8 319.4 166.7 314.5 158C312.6 154.6 311 151.5 311 151.2C311 150.9 312.4 151.9 314.1 153.6C315.9 155.2 317.1 156 316.8 155.5C314.2 149.3 312.1 145.4 308.4 139.3C306 135.3 304 131.8 304 131.4C304 131.1 305.4 131.9 307.2 133.1C309 134.5 310.1 134.8 309.6 133.9C309.2 133.2 311.7 135.4 315.1 139C322.8 147 320.4 142 312.2 132.9C309.2 129.7 307.2 127 307.5 127C307.9 127 307.7 126.3 307 125.5C306.3 124.7 305.3 124 304.7 124C304.1 124 304.5 124.7 305.6 125.6C307.4 127 307.4 127.1 305.2 126C303.9 125.3 303.1 124.6 303.4 124.3C303.7 123.9 303.5 123.1 302.9 122.3C301.2 120.3 303.9 120.6 306.3 122.7C308.8 124.9 308.2 123.7 302.6 115.6C300.3 112.4 297.8 108.8 297 107.6L295.6 105.5L297.9 107.5L300.3 109.5L298.5 106.7C296.6 103.8 297 103.4 300.3 105.1L302.5 106.1L300.4 104.3C299.2 103.3 294.8 99.8 290.6 96.6C286.4 93.3 283 90.3 283 89.8C283 89.4 280.8 87.9 278 86.5C275.3 85.1 273 83.6 273 83.1C273 82.6 271.3 81.5 269.3 80.7L265.5 79.1L268.5 79C271.2 78.8 271.1 78.7 267 77.5C263.5 76.5 263.1 76.2 265 76C266.8 75.9 266.1 75.4 262.5 74.4L257.5 73.1L262.5 73.5L267.5 73.9L263 72.9C260.5 72.3 257.4 71.6 256 71.2L253.5 70.6L256 70.2C257.4 70 258.9 69.4 259.5 68.9C260 68.4 255.6 68 248.3 68C241.6 68 235.5 67.7 234.6 67.4C232.1 66.4 233.9 64.9 236.7 65.6C238.5 66.1 239.1 65.9 238.6 65.1C238.2 64.5 237.2 64 236.4 64C235.6 64 235 63.6 235 63.1C235 62.5 233.5 62.4 231.6 62.7C228.4 63.2 228.3 63.1 228.7 60.6C229.3 57.5 229 57.4 222.1 60C219.1 61.1 216.5 61.8 216.2 61.6C216 61.3 216.4 60.2 217 58.9C218.2 56.8 217.8 56.9 212.5 59.9C209.4 61.7 207 62.8 207.2 62.3C210.9 54.9 214.4 40.9 218 19.5C219.8 9.09998 219.8 8.29998 217.8 6.89998C216.8 6.19998 216 4.99998 216 4.29998C216 3.59998 215.3 2.99998 214.4 2.99998C213.5 2.99998 213.2 2.49998 213.6 1.79998C214.1 0.999978 213.8 0.899978 212.5 1.39998C211.5 1.79998 210.4 1.59998 210 0.999978C209.7 0.399978 209.2 0.199978 208.9 0.399978ZM192.4 28.2C193.6 31.5 192.2 36 186.4 48.6C184 53.6 181.8 59 181.4 60.6C181 62.2 178.9 66.8 176.8 70.9C174.7 75.1 173 78.8 173 79.2C173 79.7 171.1 83.1 168.8 86.8C161.4 98.8 138.6 118.7 134.9 116.4C134.4 116.1 134 116.8 134 117.9C134 119.9 133.9 119.9 132.2 118.2C131.1 117.3 130.5 116.2 130.7 115.8C130.9 115.4 130.4 113.4 129.5 111.4C127.7 107.1 127.7 106.7 129.1 107.6C129.9 108.1 129.9 107.7 129.1 106.2C127.6 103.3 127.7 102.5 129.5 104C130.7 105 131.1 104.9 131.7 103.4C132.1 102.3 133.1 100.9 134.1 100.3C135.4 99.3 135.7 98 135.4 94.3C135 90.8 135.2 89.9 135.9 91C136.8 92.2 137 92 137.1 90C137.1 88.6 137.4 88.1 137.7 88.7C138.5 90.8 140.9 90.2 141.4 87.7C141.7 86.5 142.1 84.3 142.4 82.8C142.8 81.3 143.9 79.9 144.9 79.5C146.2 79.1 147.1 77.6 147.5 74.7C148.3 69.9 149.3 68.4 153.3 66C154.9 65 156.9 62.7 157.8 60.9C158.7 59 160.1 57.5 160.9 57.5C162.3 57.5 164.9 54 166.9 49.3C168.2 46.6 170.2 45.3 169.4 47.7C169 49.2 169.1 49.2 170.2 47.5C170.9 46.4 173.3 43.8 175.5 41.8C180.2 37.3 178.8 36.9 172.2 40.7C167.1 43.6 163.8 46.8 164.5 48C164.8 48.4 162.5 50 159.5 51.5C154.3 54 152 55.9 155.8 54.6C157.2 54.1 157.1 54.3 155.5 55.6C154.4 56.4 153 57.4 152.5 57.8C151 58.8 147.5 64.4 147.8 65.3C147.9 65.8 147.7 65.9 147.2 65.7C146.8 65.4 145.3 66.1 144 67.2C142.6 68.3 142.2 68.9 143 68.5C143.8 68.1 143.4 68.8 142 70C140.3 71.5 140.1 72 141.3 71.6C144.5 70.6 143 72 139.3 73.5C136.5 74.7 135.9 75.3 136.9 75.9C137.9 76.6 137.7 76.9 136 77.5C134.5 78 134.1 78.5 134.9 79C135.8 79.5 134.9 81 132.2 83.7C130 85.9 127.9 88.6 127.6 89.7C127.2 90.9 125.8 93 124.5 94.5C123.1 95.9 122.2 97.6 122.5 98.1C122.9 98.6 122.3 99 121.3 99C119.9 99 119.8 99.2 120.9 99.9C122 100.6 121.8 100.9 120.1 101.2C118.9 101.3 118 101.9 118.1 102.5C118.1 103 118.6 103.4 119.2 103.2C119.7 103.1 120.9 103.5 122 104.3C123.8 105.5 123.7 105.7 121.4 107.9C120.1 109.2 119 109.7 119 109C119 108.4 118.5 108.2 118 108.5C116.6 109.4 119.4 112 121.7 112C123.4 112.1 123.4 112.1 121.7 113.1C120.8 113.7 120.2 114.5 120.5 114.9C121.1 115.9 108.3 119.3 106.9 118.5C105.6 117.6 105.8 119.4 107.3 120.9C107.9 121.6 106.5 121.2 104.1 120.2C101.7 119.1 98.6 117.1 97.2 115.7C94.9 113.4 94.7 112.5 94.9 104.8C95.1 95.5 94.8 96.2 106.7 77.7C114.3 65.9 125.5 53.3 133 48.2C139.9 43.6 149 38 149.6 38C149.9 38 153.4 36.4 157.4 34.5C161.4 32.6 165.4 31 166.3 31C167.2 31 168.1 30.6 168.5 30.1C168.8 29.5 171.2 28.8 173.8 28.4C176.4 28 179.7 27.2 181.2 26.6C182.7 25.9 185.6 25.5 187.7 25.5C190.9 25.5 191.6 25.9 192.4 28.2ZM120.1 147.7C121.4 149.3 121.3 149.4 119.8 148.1C118.8 147.4 118 146.6 118 146.4C118 145.6 118.8 146.1 120.1 147.7ZM128.5 150C128.8 150.6 128.4 150.7 127.6 150.4C125.8 149.7 125.5 149 126.9 149C127.5 149 128.2 149.4 128.5 150ZM136.5 155C136.8 155.6 136.4 155.7 135.6 155.4C133.8 154.7 133.5 154 134.9 154C135.5 154 136.2 154.4 136.5 155ZM146 161.7C146 162.7 140.7 158.4 139.8 156.6C139.1 155.3 140 155.8 142.3 158C144.4 159.9 146 161.6 146 161.7ZM130 164C131.8 165.2 130.2 165.2 127.5 164C126.2 163.4 126 163.1 127 163.1C127.8 163.1 129.2 163.5 130 164ZM151.4 165.3C152.1 166 153 167.9 153.4 169.5C154.3 172.9 154.2 172.8 151.1 167.7C148.8 164 149 162.9 151.4 165.3ZM138.5 169.8C138.2 170.1 136.9 169.3 135.7
168.1L133.5 165.8L136.3 167.5C137.8 168.5 138.8 169.5 138.5 169.8ZM126 168.4C126 168.7 125.6 169.2 125 169.5C124.5 169.8 124 169.6 124 169.1C124 168.5 124.5 168 125 168C125.6 168 126 168.2 126 168.4ZM138.6 174.5C139.6 175.3 140 176 139.3 176C137.4 176 135 174.9 135 173.9C135 172.6 136.4 172.8 138.6 174.5ZM211.6 180C211.6 180.8 212.8 183.9 214.3 186.7C215.8 189.6 216.9 192 216.8 192C216.6 192 214.9 191.5 213 190.9C211.1 190.3 206.3 189.5 202.4 189.1L195.4 188.5L198.4 186C200.1 184.7 200.9 184.3 200.2 185.2C199 186.7 199.1 187 201.2 187.5C202.4 187.8 205.4 188.2 207.8 188.4C210.1 188.6 212.3 189 212.7 189.4C213 189.7 213.7 190 214.2 190C214.7 190 213.5 187.6 211.5 184.8C209.6 181.9 208 179.2 208 178.7C208 177.2 211.5 178.5 211.6 180ZM209.1 183.8L211.2 187H208.2C204.1 187 202.2 184.1 204.3 181.2C205.7 179.4 206.8 180 209.1 183.8ZM229.6 193.2C230.9 195.3 232 197.2 232 197.4C232 198.3 225.7 196 224 194.5C223.1 193.7 221.5 193 220.4 193C218.9 193 218.8 192.8 220 192C220.9 191.5 221.9 191.5 222.7 192.2C223.5 192.8 224.3 193 224.7 192.7C225 192.3 224.5 191.8 223.6 191.4C222.7 191.1 222 190.3 222 189.7C222 189.2 222.9 189.5 223.9 190.4C225 191.4 225.6 192.8 225.3 193.6C225 194.4 225.2 195 225.7 195C227.9 195 227.9 193.5 225.7 190.6C221.9 185.6 221.5 184.3 224.5 187C226 188.4 228.3 191.2 229.6 193.2ZM221.3 189.6C220.6 191.6 220.3 191.4 219.8 188.5C219.4 186.5 219.6 186.2 220.6 187.1C221.3 187.7 221.6 188.8 221.3 189.6ZM190.4 195.5C189.5 196.9 188.6 198 188.3 198C187.8 198 188.8 196.2 190.3 194.2C192 192 192.1 192.9 190.4 195.5ZM202.6 198C205.6 198 203.8 199.5 200.5 199.7C197.8 199.9 197.2 199.7 197.7 198.4C198 197.6 198.9 197.1 199.7 197.4C200.5 197.7 201.8 198 202.6 198ZM217 203C218.1 203.8 217.7 203.9 215.5 203.4C211.8 202.6 211 202 213.6 202C214.6 202 216.2 202.5 217 203ZM225 207.5C225.7 208.3 225.8 209 225.2 209C224.7 209 223.7 208.3 223 207.5C222.3 206.7 222.2 206 222.8 206C223.3 206 224.3 206.7 225 207.5ZM211.7 208.7C212 209.4 211.3 209.6 210.1 209.3C208.9 209 208.3 208.4 208.6 207.8C209.3 206.7 211.2 207.2 211.7 208.7ZM355.2 212.6C358 213.4 357.4 215.6 353.3 219.8C349.5 223.6 348.3 224.4 333 234.2C325.1 239.3 305.8 249.3 303.5 249.5C303 249.6 301.8 249.9 301 250.2C293.8 253.1 286.9 253.7 279.7 252.1C275.3 251 275.5 251.2 274.6 248.3C274 246.4 274.2 246.1 275.6 246.7C276.9 247.2 277.2 247 276.7 245.7C276.3 244.6 276.8 243.7 278.1 242.9C280 241.9 280.1 242 279.5 244.2C278.8 246.4 278.8 246.4 280.7 244.8C282.5 243.1 291.5 240.7 294.2 241.1C296.3 241.5 298.6 240.8 321.5 233.3C326.9 231.6 337 225.4 337 223.9C337 223.4 336 223.5 334.8 224.2C331.6 226 325.8 228 323.8 228C322.9 228 321.4 228.7 320.6 229.6C319.7 230.4 318.6 230.9 318.1 230.6C317.1 230 311.9 231.9 311 233.2C310.4 234 301.3 235.3 297 235.2C295.6 235.2 294 235.6 293.3 236.2C292.6 236.7 291.1 236.9 289.8 236.5C287.5 235.8 287.5 235.8 289.5 237.5L291.5 239.1L289.5 238.7C288.4 238.4 286.6 237.9 285.5 237.4C283.8 236.8 283.7 236.9 284.7 238.1C285.6 239.3 285.1 239.5 281.2 239.4C277.4 239.3 276.5 239 275.7 236.9C274.9 234.9 274.6 234.8 274.3 236.2C274 237.2 273.4 238 272.9 238C272.4 238 271.7 238 271.3 238C270.8 238 270.4 236 270.4 233.6C270.2 229.7 270.7 228.8 273.9 225.8C280.4 219.6 287.2 216.7 297.5 215.5C299.7 215.3 305.3 214.6 310 214.1C314.7 213.5 321.6 212.8 325.4 212.6C329.1 212.3 332.4 211.9 332.7 211.6C333.3 211 352.9 211.8 355.2 212.6Z"></path><path d="M136.6 94.5C137 95.3 137.4 96 137.6 96C137.8 96 138 95.3 138 94.5C138 93.7 137.6 93 137 93C136.5 93 136.3 93.7 136.6 94.5Z"></path><path d="M147 105.1C147 105.6 147.5 105.8 148 105.5C148.6 105.2 149 104.7 149 104.4C149 104.2 148.6 104 148 104C147.5 104 147 104.5 147 105.1Z"></path><path d="M55.7 177.1C56.4 177.8 57.2 178.1 57.5 177.8C57.8 177.5 57.3 176.9 56.3 176.6C54.9 176 54.8 176.1 55.7 177.1Z"></path><path d="M50 181C53.5 182.9 55.9 183.6 54.7 182.3C54.3 182 54.5 181.1 55.1 180.3C56 179.2 55.3 179 51.4 179L46.5 179.1L50 181Z"></path><path d="M185.6 202.5C185.3 203.4 185.1 205.4 185.1 206.8C185.2 208.8 185.4 208.5 186 205.5C186.8 201.2 186.7 199.8 185.6 202.5Z"></path><path d="M37 204C35.7 204.8 35.8 205 37.3 205C38.2 205 39 204.5 39 204C39 202.8 38.9 202.8 37 204Z"></path><path d="M194 219.4C194 219.6 194.8 220.4 195.8 221.1C197.3 222.4 197.4 222.3 196.1 220.7C194.8 219.1 194 218.6 194 219.4Z"></path><path d="M206.8 223.7C207.5 224 208.4 223.9 208.7 223.6C209.1 223.3 208.5 223 207.4 223.1C206.3 223.1 206 223.4 206.8 223.7Z"></path><path d="M193 228.5C193.7 229.3 194.7 230 195.2 230C195.8 230 195.7 229.3 195 228.5C194.3 227.7 193.3 227 192.8 227C192.2 227 192.3 227.7 193 228.5Z"></path><path d="M45 238.1C45 238.6 45.9 239 47 239C48.1 239 49 238.8 49 238.6C49 238.4 48.1 238 47 237.7C45.9 237.4 45 237.6 45 238.1Z"></path><path d="M112 240.4C112 241.6 115.7 245.3 123.2 251.5C124.5 252.6 126.8 255.6 128.3 258.3C130.2 261.4 132.5 263.7 135.2 265.1C139.1 267.1 139.9 267.2 146.1 266C151.5 265 153.8 265 157.2 265.9C162.2 267.3 169.2 267 169.7 265.4C170 264.6 168.5 264.4 165.1 264.8C159 265.4 153.8 263.1 146.2 256.4C141.3 252.1 140.3 251.7 134 251C125.5 250.1 118.2 246.6 115.5 242.3C113.4 238.9 112 238.1 112 240.4ZM136.8 253.6C138 254 139 254.9 139 255.7C139 256.9 139.3 257 140.3 256.2C141.3 255.3 142.4 255.8 144.8 258C146.6 259.6 148 261.4 148 261.9C148 263.3 144.6 263.3 139.7 261.9C136 260.9 129 255.7 129 253.9C129 252.9 133.4 252.7 136.8 253.6Z"></path><path d="M54.3 245.7C53.6 245.9 53 246.7 53 247.3C53 248.6 60.3 253.7 66 256.5C70.3 258.7 78.5 264.5 82.4 268.2C84.1 269.7 85.7 271 86.1 271C86.5 271 86.8 271.9 86.7 273C86.6 274.1 86.3 275 86 275C85.7 275 85.3 276.1 85.2 277.5C85.1 279.3 86.2 281.2 89.2 284.1C93.6 288.4 97.9 291.2 96.5 289C96 288.2 96.2 287.9 96.9 288.1C97.6 288.4 98 288.8 97.8 289.1C96.7 291 109 299 118.3 302.5C122.3 304 123.1 304.7 122.7 306.4C122.4 307.6 121.9 310.1 121.6 312L121 315.5L122.5 312.5C123.3 310.8 123.9 308.7 124 307.7C124 305 126.1 304.7 133.6 306.6C138.7 307.9 145.3 308.4 159 308.6C176.8 308.7 177.8 308.9 186.6 311.9C198.4 315.9 206.7 316.1 202.9 312.3C202.3 311.7 202 310.3 202.2 309.1C202.5 307 202.6 307 207 309.9C209.5 311.5 212.8 313.9 214.5 315.2C216.1 316.4 217.1 316.9 216.7 316.3C216.3 315.7 216.4 314.9 217 314.5C217.5 314.2 218 313 218 311.8C218 310.1 218.2 310 219.5 311C220.8 312.1 221.8 312 225 311C230.4 309.2 230.3 306.4 224.7 302.6C221.8 300.6 221.1 300.4 222.3 301.8C223.4 303 223.7 304 223.1 304.4C222.6 304.8 221.9 304.6 221.6 304.1C220.8 302.8 212.7 303.1 211.8 304.4C211.3 305.2 210 304.9 208 303.8C205.5 302.4 205 302.3 205 303.6C205 304.9 204.6 304.9 202.1 303.5C200.1 302.5 198.9 302.4 198.5 303.1C198 303.7 197.3 303.5 196.3 302.3C195.3 301.1 194.7 300.9 194.4 301.7C194 302.6 192.9 302.4 190.5 301C188.7 300 186.9 299.4 186.6 299.7C186.3 300.1 186 299.8 186 299.1C186 298.4 185.3 298 184.5 298.3C183.7 298.7 182.8 298.5 182.5 297.9C182.1 297.4 181.5 297.2 181 297.5C180 298.1 169.2 291.4 167.3 289C166.3 287.8 165.8 287.7 164.3 288.8C159.8 291.9 153.7 294 152.4 292.9C151.7 292.3 150.1 292.1 148.9 292.5C147.1 293.1 146.8 292.9 147.4 291.5C147.9 290 147.8 289.9 146.6 290.9C145.8 291.6 144.6 291.9 144 291.5C143.5 291.2 143 291.4 143 292C143 292.7 142.4 293 141.8 292.7C141.1 292.5 140.6 291.7 140.8 291C141.1 289.9 140.8 289.9 139.6 290.9C138.4 291.9 137.7 291.9 135.8 290.9C134.5 290.2 133.1 289.5 132.5 289.5C129.5 289.1 125 287.7 125 287.1C125 286.8 123.6 285.9 121.9 285.1C119.9 284.2 119.1 283.3 119.4 282.3C119.8 281.4 119.3 280.6 118 280.3C116.9 280 116.2 279.4 116.5 279C116.8 278.5 116.6 277.9 116 277.5C115.5 277.2 115 277.6 115 278.6C115 279.9 114.7 280 113.6 279.1C112.5 278.2 112.1 278.2 111.7 279.2C111.4 279.9 111.2 279.4 111.3 278C111.4 276.5 111 275.6 110.3 275.8C109.5 275.9 109 275 109 273.8C109 271.9 108.8 271.8 108 273C107.1 274.3 106.8 274.3 105.9 272.7C105.4 271.8 104.2 271 103.5 271C102.7 271 102 270.5 102 269.9C102 269.3 101.3 269 100.6 269.3C99.6 269.7 99.3 269.4 99.7 268.4C100 267.5 99.5 267 98 267C96 267 95.9 266.8 97.1 265.3C98.3 263.8 98.3 263.7 96.8 264.3C95.6 264.7 94.4 264.1 93.1 262.5C92.1 261.1 90.7 260 90 260C89.4 260 89.2 259.5 89.5 259C89.9 258.4 89 258 87.6 258C85.9 258 85 257.5 85 256.4C85 255.4 84.4 255 83.5 255.4C82.7 255.7 82 255.6 82 255.1C82 254.6 80.8 253.9 79.3 253.5C77.7 253.2 73 251.1 68.8 248.9C61.6 245.3 57.5 244.4 54.3 245.7ZM105.6 291.8C105.3 292.1 105.5 292.9 106.1 293.7C107 294.7 106.9 295 105.6 295C104.7 295 104 294.6 104 294.1C104 293.6 103.7 292.4 103.4 291.6C102.9 290.4 103.2 290.1 104.4 290.6C105.3 291 105.8 291.5 105.6 291.8ZM116 299C116 299.5 115.4 300 114.6 300C113.8 300 112.8 299.5 112.5 299C112.2 298.4 112.8 298 113.9 298C115.1 298 116 298.4 116 299Z"></path><path d="M248.4 270.9C248.7 271.4 250 272 251.2 272.3C253.4 272.9 253.4 272.8 251.6 271.5C249.4 269.8 247.6 269.5 248.4 270.9Z"></path><path d="M81.3 282.2C80.7 282.9 79.5 285 78.6 286.8C77.1 289.6 77.1 290.3 78.4 292.7L79.8 295.5L82.6 289.7C85.1 284.6 85.3 283.8 83.9 282.4C82.6 281.2 82.1 281.1 81.3 282.2Z"></path><path d="M248.6 281.9C248.3 282.3 248.7 283.6 249.6 284.6C251 286.4 251.1 286.4 250.1 284.4C249.5 283.2 249.4 282 249.7 281.6C250 281.3 250.1 281 249.7 281C249.4 281 248.9 281.4 248.6 281.9Z"></path><path d="M84 290.7C82.6 293.4 81.4 295.8 81.2 296.1C81.1 296.5 82.7 298.2 84.9 299.9L88.9 303.1L91.5 297.6L94.1 292.1L90.8 289.1C89 287.4 87.3 286 86.9 286C86.6 286 85.3 288.1 84 290.7Z"></path><path d="M94.4 299.2C93.4 302.1 92.4 304.7 92.2 305.1C92.1 305.4 94.4 307.3 97.5 309.4C101.3 311.9 103.2 312.7 103.5 311.8C105.4 306.4 107 301.6 107 301C107 300.4 97.5 294 96.6 294C96.5 294 95.5 296.3 94.4 299.2Z"></path><path d="M72 298.2C70.6 299.9 67.7 303.3 65.5 305.7C61.9 309.6 60.9 310.2 56.1 310.6C53.1 310.9 49.9 311.5 49 312C48 312.5 47.1 312.7 46.8 312.5C46.6 312.2 43.7 312.5 40.4 313.1C37.2 313.6 30.9 314.3 26.5 314.6C22.1 314.9 18.4 315.5 18.2 316.1C18 316.6 16.5 317 14.8 317C13.2 317 11.2 317.7 10.4 318.5C9.4 319.4 7.9 319.8 6.5 319.4C3.7 318.7 3.2 319.5 2.5 325C2.2 327.3 1.5 330 0.999998 331C-2.10548e-06 332.9 0.499998 335.5 2.4 337.8C4.1 340.1 4.1 343.2 2.3 344.5C0.599998 345.7 0.699998 346 3.2 348C4.8 349.2 6.4 351.9 7 354.2C7.9 357.2 8.8 358.5 11 359.3C13.6 360.3 13.7 360.5 12.2 361.8C10.9 362.8 10.8 363.3 11.8 363.6C12.4 363.9 13 364.8 13 365.6C13 366.5 13.5 366.8 14 366.5C14.6 366.2 15 366.4 15 367.1C15 367.8 15.8 367.6 17 366.5C18.6 365 19 365 18.5 366.2C17.9 367.8 20.5 369.5 22.1 368.4C22.6 368.1 23 368.6 23 369.4C23 370.6 23.6 370.7 26.1 370C27.9 369.5 29.7 369.3 30.1 369.6C30.6 369.9 31 369.4 31 368.6C31 367.7 31.3 367 31.8 367C32.2 367 33.6 366 35 364.9C36.5 363.6 36.8 363 35.8 363.4C34.6 363.7 34.3 363.5 34.7 362.4C35.2 360.9 34.2 360.6 31.6 361.6C30.7 361.9 30.2 362.6 30.5 363C30.8 363.4 30.3 364 29.5 364.4C28.7 364.7 28 364.4 28 363.8C28 363.1 27.5 363.2 26.5 364C25.2 365.1 25.1 365 25.6 363.4C26 362.4 27 360.7 27.9 359.6C29.4 357.8 29.4 357.8 26.3 358.5C24.2 358.9 23 358.8 23 358.1C23 357.5 23.5 357 24 357C24.6 357 25 356.5 25 356C25 355.4 24.3 355 23.4 355C22.2 355 22.6 354.2 24.7 352C26.7 349.9 27.5 347.9 27.6 345.3C27.7 343.3 28.3 341.4 28.9 341.2C29.6 341 30.6 340.2 31.3 339.5C31.9 338.9 33.2 338.5 34.2 338.8C36.3 339.3 36.3 339.2 34.8 342.5C33.9 344.5 33.9 345.3 34.9 346.3C35.9 347.2 36 347.1 35.5 345.8C34.6 343.5 38.6 339.7 41.2 340.3C42.5 340.7 44.4 339.8 46.8 337.6L50.4 334.2L47.3 333.6C45.3 333.1 42.8 333.5 40.5 334.4C38.4 335.3 35.8 336 34.6 335.9C31.5 335.9 42.8 330.8 46.8 330.5C48.6 330.4 50.6 329.8 51.3 329.1C51.9 328.5 53.5 328 55 328C56.4 328 58.6 327.3 60 326.5C61.4 325.7 63.8 324.5 65.3 323.9C67.3 323.1 67.8 322.5 67 322C65.6 321.1 71.9 320.3 82.5 320.1C87.8 319.9 89.2 320.1 88.4 321C87.7 321.7 85.3 322.3 82.9 322.5C80.5 322.7 78.2 322.9 77.8 322.9C77.3 323 77 323.5 77 324.1C77 324.7 77.8 324.9 78.8 324.6C79.7 324.4 84.1 323.9 88.5 323.6L96.5 323L92.3 324.6C89.9 325.5 88 326.6 88 327.1C88 328 91 327.6 96.4 325.9C100.3 324.7 100.8 325.5 97.3 327.4C93.5 329.5 96.3 329.4 100.3 327.3C102.1 326.4 104.8 325.5 106.4 325.3C108.8 325.1 109.1 325.2 108 326.5C107.1 327.6 107.1 328 107.9 328C108.6 328 108.8 328.4 108.5 329C108.2 329.5 108.3 330 108.9 330C109.4 330 110.2 329.5 110.6 328.9C110.9 328.3 112.3 328 113.7 328.3C115 328.5 115.9 328.5 115.8 328.1C112.9 322.3 110.1 319.6 103.6 316.3C94.7 311.9 85.9 305.6 80 299.6C77.6 297.1 75.3 295 75 295C74.7 295 73.4 296.4 72 298.2ZM86.9 311.4C88.4 312.2 88.9 313 88.1 313.4C87.5 313.8 86.6 313.9 86.1 313.6C85.6 313.3 84.7 313.7 84 314.5C82.6 316.2 82.6 316.2 85.5 317.8C87.5 318.9 87.5 318.9 85.3 319C84.1 319 82.8 318.5 82.5 318C82.1 317.4 81.5 317.2 81.1 317.4C80.7 317.7 80.3 317.3 80.3 316.5C80.3 315.7 80.9 315 81.6 315C83.6 315 84.3 313.1 83 311.5C81.4 309.6 83.5 309.5 86.9 311.4ZM113 325.9C113 326.3 112.4 326.7 111.6 326.7C110.8 326.7 110.4 326.1 110.7 325.3C111.2 324 113 324.4 113 325.9ZM22 366.4C22 366.7 21.6 367.2 21 367.5C20.5 367.8 20 367.6 20 367.1C20 366.5 20.5 366 21 366C21.6 366 22 366.2 22 366.4Z"></path><path d="M228 301.3C228 302.1 228.9 303.5 230 304.5C231.8 306.2 232 306.2 231.4 304.7C230.7 302.7 232.1 302.5 233.9 304.2C234.9 305.3 235 305.2 234.5 303.9C234.2 303 232.8 301.8 231.4 301.1C228.2 299.7 228 299.7 228 301.3Z"></path><path d="M135.7 310.7C135 312 132.7 322.1 133.1 322.4C133.3 322.6 136.3 323 139.7 323.3L145.9 323.8L146.9 319.6C147.4 317.4 148.2 314.5 148.5 313.2C149.2 311.2 148.9 311 144.9 311C142.5 311 139.5 310.7 138.4 310.4C137.2 310.1 136 310.2 135.7 310.7Z"></path><path d="M163.3 310.8C161.5 311.1 161 312 160.4 316.6C159.7 322.6 160.2 324 162.8 322.4C164.5 321.3 167.4 311.3 166.1 310.7C165.8 310.5 164.5 310.6 163.3 310.8Z"></path><path d="M154.9 311.7C151.4 312.1 151.2 312.3 150.5 316.7C150.1 319.2 149.6 321.9 149.3 322.7C148.9 323.8 149.6 324.1 153.1 323.8C157.3 323.5 157.4 323.4 158.7 318.5C160.2 312.7 160.3 310.9 159.3 311.2C158.8 311.3 156.9 311.5 154.9 311.7Z"></path><path d="M126.4 326.1C125.4 327.4 125 328 125.7 327.6C127.2 326.8 131.5 330.9 130.4 332C129.9 332.5 129.6 335.7 129.8 339.2C130.1 345.4 130.2 345.5 133.1 345.7C136.5 346 136.5 346 134.5 341.3C132.7 336.9 132.6 337.1 134.8 337.5C135.7 337.7 136.8 337.9 137.3 337.9C137.7 338 138 339.3 138 340.9C138 342.6 138.4 344.2 139 344.5C140.1 345.2 141.5 340.6 140.5 339.1C139 336.6 141.5 338.4 147.2 343.7C152.7 349 153 349.2 150.6 345.6C147.4 340.8 147.4 340.2 150.6 340.8C153.1 341.3 158.9 348.9 159 351.8C159 352.5 159.4 352.9 159.9 352.5C160.5 352.2 160.3 350.5 159.4 348.5C158 345 158.6 344 160.8 346.2C161.6 347 162 347.1 162 346.3C162 345.6 164.5 346.3 168 347.8C171.3 349.3 174 350.8 174 351.3C174 351.7 173 351.6 171.8 350.9L169.5 349.8L171.5 351.9C172.6 353 175.3 354.6 177.5 355.4C179.7 356.1 181.4 357.3 181.2 357.9C181.1 358.5 181.7 359.3 182.5 359.6C183.3 360 184 360.9 184 361.6C184 362.4 184.8 364.3 185.7 365.8C187.2 368.2 187 368.1 183.6 365C180.6 362.3 181.2 363.4 186.3 369.8C192.1 377.3 193.7 380.6 194.4 386.2C194.6 387.2 194.3 388 193.9 388C192.6 388 193.5 392.7 195.4 395.5C197 397.9 197 398.3 195.6 399.9C194.7 400.9 194 402.6 194 403.8C194 405.6 194.6 406 196.9 406C200.6 406 202.8 403.6 201 401.5C200 400.3 200.3 399.6 202.6 397.5C204.1 396.1 204.7 395 203.9 395C201.7 395 204.2 393.2 207 392.8C208.9 392.6 209.5 391.9 209.5 390C209.5 388.6 210 387.6 210.7 387.7C211.9 388 211.9 383.6 210.7 382.3C209.6 381.3 209.9 379.8 211 380.5C211.6 380.8 212 380.6 212 380.1C212 379.5 212.8 379 213.8 379C214.7 379 216.4 378.3 217.4 377.5C219.3 376 219.3 376 217.2 376C214.5 376 214.4 374.6 216.8 372.8C219.4 371 219.9 368.8 218.3 367.1C217 365.9 217.2 365.4 219.5 363.3C221.9 361 222 360.7 220.4 359.6C219.4 358.8 219 357.8 219.4 357.1C219.8 356.5 219.6 355.2 218.8 354.3C218.1 353.4 218 352.9 218.6 353.3C219.3 353.7 220 353.3 220.4 352.5C220.7 351.6 219.9 350.3 218.2 349.3C214.9 347.1 212.1 343.9 212 342.2C212 341.5 210.7 341 208.9 341C207.2 341 206.1 340.6 206.5 340C206.8 339.4 206.8 338.9 206.3 338.9C205.9 338.8 203.9 338.6 202 338.4C200.1 338.2 197.4 337.6 196 337.1C194.6 336.5 190.1 335.3 186 334.4C176.1 332.1 172.7 330.6 168.9 326.9C166.6 324.6 165.2 324 163.6 324.5C156.8 326.6 135.2 326.7 129.9 324.6C129 324.2 127.6 324.8 126.4 326.1ZM131.7 328.2C131.4 329 131.1 328.7 131.1 327.6C131 326.5 131.3 325.9 131.6 326.3C131.9 326.6 132 327.5 131.7 328.2ZM134.2 329.2C133.5 329.9 133 330 133 329.4C133 328.8 133.3 328 133.7 327.7C134 327.3 134.6 327.2 134.9 327.5C135.1 327.8 134.8 328.6 134.2 329.2ZM142.4 330.7C143 332.2 143.2 332.2 144 331C144.6 330.1 145 330 145 330.7C145 332.6 143.3 333.1 141.7 331.6C140.9 330.7 139.8 330.5 139 331C137.9 331.7 137.9 332.1 139.1 333.6C140.2 335 140.2 335.2 139.1 334.6C138.3 334.1 137.5 334.3 136.9 335.1C136.4 336 136.2 335.6 136.3 333.7C136.6 329.5 141.1 327.3 142.4 330.7ZM155.5 341C155.8 341.5 155.6 342 155.1 342C154.5 342 154 341.5 154 341C154 340.4 154.2 340 154.4 340C154.7 340 155.2 340.4 155.5 341Z"></path><path d="M83.8 325.7C84.4 325.9 85.6 325.9 86.3 325.7C86.9 325.4 86.4 325.2 85 325.2C83.6 325.2 83.1 325.4 83.8 325.7Z"></path><path d="M69.5 330C69.2 330.5 69.6 331 70.4 331C71.2 331 72.2 330.5 72.5 330C72.8 329.4 72.4 329 71.6 329C70.8 329 69.8 329.4 69.5 330Z"></path><path d="M97.5 330C97.2 330.5 97.3 331 97.9 331C98.4 331 99.2 330.5 99.5 330C99.8 329.4 99.7 329 99.1 329C98.6 329 97.8 329.4 97.5 330Z"></path><path d="M103.5 331C103.2 331.5 103.3 332 103.9 332C104.4 332 105.2 331.5 105.5 331C105.8 330.4 105.7 330 105.1 330C104.6 330 103.8 330.4 103.5 331Z"></path><path d="M108 332.2C106.1 333.3 103.5 334.9 102.2 335.7C101 336.5 100.2 337.5 100.5 338.1C100.9 338.6 102.5 338 104.2 336.5C107.5 333.7 108.6 333.4 109.2 335.2C109.4 335.8 110.6 334.9 111.9 333.2C114.6 329.4 113.2 329 108 332.2Z"></path><path d="M98 333C96.1 334.1 95.2 334.9 96 334.9C96.8 334.9 98.6 334.1 100 333C103.1 330.5 102.5 330.5 98 333Z"></path><path d="M112.7 335.6C110.7 336.9 109 338.6 109 339.2C109 339.9 109.9 339.4 111 338.2C112.1 337 113.6 336.3 114.4 336.6C115.1 336.9 116 336.3 116.4 335.4C117.4 332.8 116.7 332.8 112.7 335.6Z"></path><path d="M120.3 335.4C117.7 337.9 117.4 339 119.4 339C120.2 339 121.1 339.7 121.4 340.6C121.9 341.8 122.3 342 123.4 341.1C125 339.7 126.6 341.3 127.3 345C127.7 347.3 127.7 347.2 127.9 344.5C128 340.2 127 337 125.4 337C124.6 337 123.6 336.2 123.2 335.2C122.5 333.4 122.4 333.4 120.3 335.4Z"></path><path d="M54.4 338.6C52.6 340 52.6 340.1 54.8 339C56 338.4 57 337.7 57 337.5C57 336.7 56.5 336.9 54.4 338.6Z"></path><path d="M44.6 341.9C43.1 342.5 43 342.9 43.9 343.5C44.9 344.1 44.9 344.4 44 345C43.1 345.6 43.3 346.3 45 348L47.1 350.1L49.6 347.3C52.2 344.3 52.6 343 50.9 343C50.4 343 50.2 342.5 50.5 342C51.2 340.8 47.4 340.8 44.6 341.9Z"></path><path d="M39.5 350C38.4 350.4 36.4 352 35 353.6C32.5 356.3 32.6 356.3 37.3 353.1C39.9 351.3 42 349.7 42 349.5C42 348.9 42 348.9 39.5 350Z"></path><path d="M156 353.4C156 353.6 156.8 354.4 157.8 355.1C159.3 356.4 159.4 356.3 158.1 354.7C156.8 353.1 156 352.6 156 353.4Z"></path><path d="M43.9 370.3C40.8 372.1 37.5 374.2 36.5 375C35.4 375.9 34.9 376 35.4 375.2C35.8 374.5 35.6 374 35 374C34.4 374 34.2 373.6 34.5 373C34.9 372.4 34.4 372.3 33.4 372.7C32.2 373.1 31.9 373 32.4 372.2C34 369.5 31 371.2 28.9 374.1L26.7 377.3L29.2 375.6C32.1 373.7 33.2 374.4 32.4 377.6C32 379.1 32.2 380 33 380C33.6 380 33.8 380.6 33.4 381.2C32.8 382.2 33 382.2 34.1 381.2C36.9 378.6 37.1 380.2 34.4 383.7L31.7 387.5L34.3 385.1C36 383.6 37 383.1 37 384C37 384.9 37.7 384.7 39.3 383.4C41.5 381.5 41.5 381.5 39.8 383.6C37.7 386 37.5 387.4 39.3 386.4C40.2 385.9 40.2 386 39.3 387C37.6 388.8 38.8 391.4 40.6 389.9C41.4 389.3 41.8 388.4 41.5 388C41.3 387.6 42 386.4 43.3 385.4L45.5 383.5L43.5 386C41.8 388.1 42 388 44.8 385.6C46.5 384 47.8 382.4 47.5 382.2C47.2 381.9 47.5 381.1 48.1 380.3C50.1 377.9 47.7 378.9 44.7 381.7C42.5 383.8 42 384 42.8 382.5C43.3 381.4 43.9 380 44 379.5C44.1 378.9 44.4 378.3 44.7 378C45.1 377.7 45 378.1 44.5 378.9C44 379.8 44.1 380.1 44.8 379.6C45.4 379.2 45.7 378.3 45.4 377.5C45 376.7 44.4 376.3 43.9 376.6C43.4 376.9 43 376.6 43 376C43 375.4 42.6 375.2 42 375.5C41.5 375.8 41 375.8 41 375.3C41 374.9 43 373.2 45.5 371.7C48 370.1 50 368.4 50 367.9C50 366.7 50.3 366.6 43.9 370.3Z"></path><path d="M57.6 383.1C53.5 383.8 51.1 385.4 55 384.8C58.1 384.4 58.3 386.8 55.5 391C53.1 394.5 51.6 394.9 52.6 391.8C53.2 389.8 53.1 389.7 51.6 390.9C49.7 392.5 49.4 391 51.3 389.1C52.3 388.1 52.1 388 50.6 388.6C49.1 389.2 48.9 389 49.5 387.9C50 387.1 49.3 387.4 48 388.5C45.7 390.5 45.7 390.5 46.4 388.5C47 386.9 46.5 387.1 44.1 389.4C40.7 392.7 40.3 393.5 42.4 392.7C44.4 391.9 46.4 394.6 45.7 397.1C45.2 398.8 45.5 399.1 47.1 398.7C48.7 398.3 49 398.5 48.4 400.2C48 401.5 48.2 402 48.8 401.6C49.3 401.3 50.1 401.7 50.4 402.6C50.8 403.6 51.8 404 52.9 403.7C54.3 403.4 54.6 403.7 54.3 405C54 406 54.3 407.1 54.9 407.4C55.5 407.8 56 407.4 56 406.6C56 404.2 59.2 398 60.2 398.6C60.6 398.9 60.8 399.6 60.5 400.1C59.1 402.3 60.8 400.7 63 397.8C65 395 65.1 394.8 63.4 395.4C62.4 395.9 61.1 396.3 60.5 396.4C60 396.5 59 396.8 58.5 397.2C57.9 397.6 57.4 397 57.4 396C57.4 395 57.9 394.4 58.5 394.7C59 395.1 59.2 394.9 58.7 394.5C58.3 394 59.4 392.1 61.2 390.3C62.9 388.5 63.9 387 63.2 387C62.6 387 61.1 388.3 59.9 390C58.7 391.6 57 393.2 56.2 393.5C54 394.3 56.3 391.5 61.7 386.5C65.7 382.8 65.8 382.5 63.7 382.5C62.4 382.5 59.6 382.8 57.6 383.1ZM47.6 391.5C45.6 393 43.5 392.6 44.6 390.9C44.9 390.4 45.5 390.2 46 390.5C46.5 390.8 47.2 390.5 47.5 389.9C47.9 389.4 48.5 389.2 48.8 389.5C49.2 389.9 48.6 390.8 47.6 391.5Z"></path><path d="M35.5 385.9C35.2 386.4 35.3 387.1 35.8 387.4C36.3 387.7 36.7 387.3 36.7 386.5C36.7 384.8 36.4 384.6 35.5 385.9Z"></path><path d="M66.5 388.6C65.6 390.1 65.3 390.9 65.9 390.6C67 389.9 69.4 386 68.7 386C68.4 386 67.5 387.2 66.5 388.6Z"></path><path d="M71.3 388.1C67.6 390.5 66.8 391.7 70.3 389.8C71.5 389.1 72.9 388.6 73.4 388.5C73.9 388.5 74.5 387.9 74.8 387.2C75.3 385.6 75.1 385.7 71.3 388.1Z"></path><path d="M79.5 387.1C79.1 387.7 79.1 388.4 79.4 388.7C79.7 389 79.5 390.1 78.9 391.1C78.2 392.5 78.3 392.8 79.4 392.4C80.6 391.9 81.9 389.1 82 386.7C82 385.6 80.2 385.8 79.5 387.1Z"></path><path d="M91.7 393.3L90 396.5L92 394.1C93.7 392.1 94.6 390 93.8 390C93.6 390 92.7 391.5 91.7 393.3Z"></path><path d="M85.6 392.7C85.2 394.1 84.1 395 82.9 395C81.2 395 81 395.6 81.3 399.7C81.5 402.4 82 405.3 82.5 406.3C82.9 407.4 82.7 409.2 81.9 410.8C79.7 415.3 79.6 415.5 81.4 414.1C82.3 413.3 83 413.1 82.9 413.6C82.6 415.5 83 417.3 83.7 416.6C84.1 416.3 84.3 411.9 84.1 406.9C84 399.9 84.3 397.2 85.5 395.3C86.4 394 86.9 392.3 86.7 391.7C86.5 391 86 391.5 85.6 392.7Z"></path><path d="M95.6 392.7C95 394.1 95.1 394.2 96.1 393.3C96.8 392.6 97.1 391.8 96.8 391.5C96.5 391.2 95.9 391.7 95.6 392.7Z"></path><path d="M67.6 395.2C66.7 396.4 66 398.3 66 399.3C66 400.4 64.4 403.5 62.4 406.2C60.4 408.9 59.1 411.4 59.4 411.7C61 413.4 63.1 412.6 63.6 410.2C64.4 407 66.9 403.8 68.1 404.6C68.6 404.9 69.9 402.9 71.1 400.3C72.3 397.7 73.5 395.1 73.8 394.6C74 394.2 73.2 394.1 72 394.5C70.5 395 70 394.9 70.4 394.1C71.7 392 69.1 393 67.6 395.2Z"></path><path d="M95 396.5C94.3 397.4 93.9 398.3 94.2 398.5C94.5 398.8 95.3 398.4 96 397.5C96.7 396.6 97.1 395.7 96.8 395.5C96.5 395.2 95.7 395.6 95 396.5Z"></path><path d="M165.5 396.9L167.5 399.3L165.5 398.6C163.9 398 163.7 398.1 164.8 399.1C165.6 400 166.3 400.1 167 399.4C167.7 398.7 167.3 397.7 165.8 396.4L163.5 394.5L165.5 396.9Z"></path><path d="M89.5 399.1C89.1 399.7 89 400.3 89.3 400.6C89.5 400.9 90 400.4 90.3 399.5C91 397.8 90.4 397.5 89.5 399.1Z"></path><path d="M171 400.6C171 401.2 171.7 402.5 172.6 403.6C174 405.4 174 405.4 172.9 403C171.5 399.9 171 399.4 171 400.6Z"></path><path d="M57.7 405C57.4 405.8 56.9 407.8 56.6 409.5L56 412.5L57.6 409.7C58.4 408.1 58.9 406.1 58.7 405.2C58.4 403.8 58.2 403.7 57.7 405Z"></path><path d="M73.3 406.3C72.2 407.5 70.6 409.6 69.7 411C68.6 412.5 68 412.9 68 412C68 410.7 67.8 410.7 67 412C65.9 413.8 66.6 416.8 68.7 419.2C69.6 420.2 70 421.6 69.6 422.5C69.3 423.3 70.8 422.3 73 420.3C75.1 418.2 77.1 415.1 77.4 413.5C78 410.7 78 410.7 76.9 412.7C74.9 416.5 74.2 415.3 75.1 409.8C75.6 406.9 75.8 404.5 75.6 404.3C75.5 404.1 74.4 405 73.3 406.3Z"></path><path d="M123.7 405.4C123.3 406.4 123.2 407.5 123.5 407.8C124.4 408.7 125.2 407.2 124.8 405.3C124.5 403.6 124.4 403.6 123.7 405.4Z"></path><path d="M109.1 407.6C109.1 408.7 109.4 409 109.7 408.2C110 407.5 109.9 406.6 109.6 406.3C109.3 405.9 109 406.5 109.1 407.6Z"></path><path d="M148.6 407.6C148.2 408.6 148.4 409.7 149.1 410C149.7 410.4 150.1 411.1 150 411.6C149.9 412.1 150.3 412.6 150.9 412.8C151.5 413 151.7 412 151.4 410.3C150.7 406.7 149.4 405.4 148.6 407.6Z"></path><path d="M163.4 410C163.7 410.8 164.3 412.2 164.6 413.1C165.3 415 170 417.5 170 415.9C170 415.4 169.3 414.7 168.5 414.4C167.7 414 167 413.1 167 412.3C167 411.5 166.6 411.1 166.1 411.5C165.5 411.8 164.6 411.2 164 410.3C163.4 409.3 163.1 409.2 163.4 410Z"></path><path d="M116.9 414.2C115.6 416 113.7 419.7 112.8 422.5C110.7 428.2 110.7 428.3 111.9 427.6C113 426.9 112 432.1 110.6 434C109.7 435.3 109.7 435.3 111.1 434.2C112 433.5 113.5 430.5 114.5 427.5C115.4 424.5 116.8 421.7 117.5 421.2C118.2 420.8 119.5 419 120.5 417.1C122 414.2 122 413.6 120.7 412.3C119.4 411 119 411.2 116.9 414.2Z"></path><path d="M100.5 414.2C100.1 415.6 99.7 416 99.3 415.2C99.1 414.6 98.4 414.2 97.9 414.5C97.4 414.8 96.1 414.6 95 414C93.4 413.1 92.5 413.2 91.4 414.1C90.6 414.7 90.2 415.5 90.5 415.8C90.7 416.1 91.6 415.7 92.5 415C93.3 414.3 94 414 94 414.3C94 414.6 92.5 415.9 90.8 417.1C89 418.4 88 418.8 88.6 418C89.3 417.1 89.4 415.6 89 414.5C88.3 412.6 88.2 412.7 87 415.2C86 417.4 86 418.5 87 421C88.2 423.9 88.1 424.3 85.3 427.3C82.2 430.6 81.6 434.5 84.7 431.4C86.6 429.6 88.2 431.2 87.2 433.9C86.9 434.8 87 435.2 87.4 434.9C87.8 434.5 88.3 433.2 88.5 432C88.7 430.7 89.9 428.7 91 427.5C92.1 426.3 93 424.7 93 423.9C93 422.3 99.5 416.8 100.3 417.7C100.7 418 100.4 419.2 99.9 420.3C98.9 422.1 98.9 422.2 100.9 420.8C103.2 419.2 108.8 411.4 106.8 412.7C104.8 413.9 101.8 414.1 102.5 413C102.8 412.5 102.7 412 102.2 412C101.7 412 100.9 413 100.5 414.2Z"></path><path d="M109.5 413C109.2 413.5 109.4 414 109.9 414C110.5 414 111 413.5 111 413C111 412.4 110.8 412 110.6 412C110.3 412 109.8 412.4 109.5 413Z"></path><path d="M111.7 415C111.4 415.8 111 417.4 110.7 418.5C110.5 419.6 109.9 420.4 109.3 420.3C108.6 420.1 105.9 422.8 103.2 426.3C97.6 433.4 96.5 435.1 97.7 434.9C100.6 434.4 100.8 435.1 99.4 439.4C97.5 444.9 94.3 448.1 93 446C92.4 445 92 444.9 92 445.7C92 447.3 95.7 449.3 97.2 448.4C97.9 448 98 448.1 97.6 448.8C97.2 449.5 97.7 451.3 98.7 453C101 457 105.5 457.3 106.2 453.5C106.5 452.1 106.3 450.7 105.7 450.3C105.2 450 105 450.2 105.3 450.7C105.7 451.3 105.3 452 104.5 452.4C102.7 453.1 102.6 453.4 104.8 446.9C105.9 443.9 107 439 107.3 436L108 430.5L106 433.5C104 436.5 104 436.5 104 434C104 430.3 106 424 107.1 424C107.7 424 107.8 424.4 107.5 425C107.2 425.5 107.2 426 107.7 426C109.5 426 113.1 419.1 112.8 416.3C112.5 414.4 112.2 414 111.7 415Z"></path><path d="M165.2 417.2C165.4 417.8 166.2 418.6 166.8 418.8C167.5 419 167.8 418.6 167.4 417.6C166.7 415.8 164.6 415.4 165.2 417.2Z"></path><path d="M146 418.9C146 419.4 146.5 420.2 147 420.5C147.6 420.8 148 420.7 148 420.1C148 419.6 147.6 418.8 147 418.5C146.5 418.2 146 418.3 146 418.9Z"></path><path d="M134.3 420.2C132.7 422.2 131.6 426.4 132.8 425.6C133.4 425.3 134.2 425.5 134.5 426C135 426.7 135.6 426.6 136.4 425.5C137.4 424.1 137.9 424.2 141.2 426.7C143.2 428.2 145.1 430.2 145.3 431C145.6 431.8 145.8 431.1 145.9 429.5C146 427.2 146.2 426.8 147 428C147.5 428.8 148 429 148 428.4C148 427.8 146.2 425.3 144.1 422.9C141 419.4 139.9 418.8 138.9 419.7C138.1 420.5 137.3 420.6 136.5 420C135.7 419.3 134.9 419.4 134.3 420.2Z"></path><path d="M151 422.1C151.7 423.2 152.4 424 152.6 423.7C153.3 423 151.9 420 150.9 420C150.3 420 150.4 420.9 151 422.1Z"></path><path d="M100.9 422.7C99.6 424.3 99.7 424.4 101.3 423.1C102.9 421.8 103.4 421 102.6 421C102.4 421 101.6 421.8 100.9 422.7Z"></path><path d="M85.1 424.6C83.9 427.3 84 427.4 85.5 425.8C86.5 424.9 87.1 423.7 86.8 423C86.6 422.3 85.8 423.1 85.1 424.6Z"></path><path d="M118.6 426.5C118.2 428.7 117.6 431.4 117.3 432.5C116.8 434.5 116.8 434.5 118.9 432.4C120.8 430.7 120.9 429.8 120.2 426.4L119.3 422.5L118.6 426.5Z"></path><path d="M127.1 425.7C127 426.3 126.7 427.6 126.4 428.5C125.9 429.8 126.2 430.1 128.1 429.8C130.2 429.5 131.3 427.9 129.3 428.1C128.9 428.1 128.3 427.3 127.9 426.3C127.5 425.3 127.1 425 127.1 425.7Z"></path><path d="M89.5 434.1C89.1 434.7 89 435.3 89.3 435.6C89.5 435.9 90 435.4 90.3 434.5C91 432.8 90.4 432.5 89.5 434.1Z"></path><path d="M93.6 435.5C92.7 438.1 92.9 438.7 94.1 436.7C94.7 435.7 95 434.6 94.7 434.4C94.5 434.1 94 434.6 93.6 435.5Z"></path><path d="M92 440.4C92 441.3 91.6 441.8 91 441.5C90.5 441.2 90 441.3 90 441.9C90 442.4 90.4 443.1 90.9 443.5C92 444.1 93.5 440.2 92.6 439.3C92.3 438.9 92 439.4 92 440.4Z"></path><path d="M119.2 447.1C118.2 448.6 118.2 449.6 118.9 450.3C120.1 451.5 121.4 449.1 120.8 446.5C120.6 445.2 120.2 445.3 119.2 447.1Z"></path><path d="M122 449.5C122 450.3 122.2 451 122.4 451C122.6 451 123 450.3 123.4 449.5C123.7 448.7 123.5 448 123 448C122.4 448 122 448.7 122 449.5Z"></path><path d="M113.6 450.6C112.7 452.9 113.4 453.4 114.9 451.6C115.6 450.8 115.7 449.9 115.2 449.6C114.6 449.3 113.9 449.7 113.6 450.6Z"></path></svg>