<?xml version="1.0" encoding="UTF-8"?>
<svg id="Layer_2" data-name="Layer 2" xmlns="http://www.w3.org/2000/svg" viewBox="0 0 399.8 399.96">
  <defs>
    <style>
      .cls-1 {
        fill: #2a2b2e;
      }

      .cls-1, .cls-2, .cls-3 {
        fill-rule: evenodd;
      }

      .cls-2 {
        fill: #e34c3c;
      }

      .cls-3 {
        fill: #fbfbfb;
      }
    </style>
  </defs>
  <g id="Darker_Logo" data-name="Darker Logo">
    <g id="svgg">
      <path id="path0" class="cls-1" d="M187.98,.1c-.88,.08-3.85,.34-6.6,.58C90.34,8.43,14.72,80.18,1.82,171.07c-1.59,11.24-1.82,14.82-1.82,28.8,0,130.41,122.13,225.67,248.66,193.96,112.69-28.24,177.69-147.16,140.76-257.51C364.29,61.21,299.15,9.43,218.78,.65c-3.92-.43-27.64-.85-30.8-.55m30.6,7.56c155.4,15.67,229.21,199.85,127.56,318.26C248.81,439.3,63.51,402.59,16.42,260.6-27.38,128.53,80.37-6.28,218.58,7.66m-30.6,4.66C82.26,18.64,1.97,113.21,12.81,218.67c11.39,110.86,115.38,187.44,224.54,165.34,96.1-19.45,161.45-110.93,148.83-208.34C373.49,77.65,287.03,6.39,187.98,12.32m27.46,2.14c113.98,10.06,192.15,118.73,165.15,229.61-25.65,105.34-136.36,166.63-239.28,132.47C56.74,348.47,3.94,264.61,15.19,176.22,27.73,77.67,116.76,5.75,215.45,14.46m-17.87,11.41l-1.97,2.01,2.09,2.09,2.09,2.09,2.09-2.09,2.09-2.09-1.97-2.01c-1.09-1.1-2.08-2-2.21-2s-1.12,.9-2.21,2m-21.6,1.49l-1.82,2.3,1.31,1.13c.72,.62,1.77,1.46,2.33,1.87l1.02,.74,1.7-2.2c2-2.59,2.03-2.4-.63-4.5l-2.09-1.65-1.82,2.3m43.6-.64c-1.1,.89-2.07,1.69-2.16,1.77-.2,.19,3.09,4.57,3.43,4.57s4.52-3.17,4.52-3.43c0-.28-3.24-4.36-3.54-4.46-.14-.05-1.16,.65-2.26,1.54m-63.71,3.25c-.24,.49-.9,1.65-1.46,2.56l-1.02,1.66,2.43,1.45c2.81,1.67,2.73,1.69,4.34-1.11,1.53-2.68,1.65-2.3-1.2-4-2.88-1.71-2.54-1.65-3.08-.55m84.89,.56c-1.31,.78-2.44,1.49-2.52,1.56-.18,.17,2.73,4.98,3.02,4.98,.12,0,1.28-.65,2.59-1.44l2.37-1.44-1.08-1.86c-2.05-3.55-1.71-3.4-4.38-1.8m-105.8,7.53c-.65,1.43-1.18,2.67-1.18,2.76,0,.26,5.19,2.4,5.37,2.22,.56-.57,2.19-4.96,1.94-5.21-.17-.17-1.35-.77-2.63-1.33l-2.32-1.03-1.18,2.6m125.63-1.16c-1.2,.56-2.24,1.07-2.3,1.13-.06,.06,.43,1.3,1.08,2.76l1.2,2.64,2.3-1.01c3.14-1.38,3.13-1.35,1.89-4.11-1.25-2.79-1.24-2.78-4.18-1.41m-68.01,6.62c-71.15,2.78-132.43,55.36-146.32,125.55-19.26,97.32,54.87,187.53,153.92,187.32,106.55-.24,181.71-104.65,148.22-205.92-20.08-60.72-77.8-104.76-140.02-106.83-3.3-.11-6.63-.24-7.4-.3-.77-.05-4.55,.03-8.4,.18m-76.38,3.28c-1.12,3.31-1.16,3.21,1.93,4.12l2.74,.81,.89-2.76c.49-1.52,.83-2.81,.76-2.87-.07-.06-1.34-.47-2.82-.91l-2.68-.81-.82,2.42m163.58-1.63c-1.43,.45-2.66,.86-2.72,.91-.07,.06,.26,1.36,.73,2.9l.85,2.8,2.67-.8c1.47-.44,2.74-.86,2.82-.93,.15-.14-1.49-5.81-1.66-5.74-.05,.02-1.26,.41-2.69,.85m-62.6,.88c124.9,15.05,181.27,162.67,98.11,256.9-70.07,79.39-199.15,64.96-250.9-28.05C10.66,178.33,74.53,56.24,184.18,45.9c2.53-.24,5.32-.51,6.2-.59,3.57-.35,21.9,.15,26.8,.74m-118.61,12.06c-.58,3.09-.54,3.15,2.66,3.55,2.66,.33,2.79,.24,3.12-2.08,.15-1.05,.35-2.2,.46-2.57,.15-.52-.24-.76-1.84-1.1-3.78-.81-3.84-.78-4.4,2.21m198.05-2.21c-2.19,.43-2.04,.14-1.56,2.97,.52,3.06,.59,3.12,3.21,2.8,3.26-.41,3.3-.46,2.71-3.55q-.56-2.95-4.36-2.21m-100.55,2.93c-5.62,3.02-104.62,60.46-105.28,61.09-1.1,1.05-.75,1.33,8.35,6.73,6.31,3.74,7.7,4.42,8.4,4.1,.46-.21,21.45-12.32,46.64-26.9,25.19-14.58,45.98-26.52,46.2-26.52,.31,0,67.82,38.83,92.92,53.44,2.27,1.32,3.98,2.54,3.8,2.71-.18,.17-20.48,11.95-45.12,26.18-46.79,27.02-46.05,26.57-45.68,27.53,.4,1.05,15.74,9.99,16.77,9.77,.5-.11,15.85-8.84,34.11-19.41,18.26-10.57,33.26-19.16,33.34-19.08,.08,.07-18.1,31.72-40.4,70.33l-40.54,70.2-.2-44.07c-.19-41.11-.25-44.07-.88-44.19-.38-.07-4.34,2.05-8.8,4.72l-8.12,4.85-.2,48.51-.2,48.51-41.8-24.12c-22.99-13.27-42.1-24.13-42.46-24.14-1.29-.02-16.54,9.36-16.54,10.18,0,1.02,105.79,62.11,108.34,62.56,3.53,.62,2.87,.98,62.81-33.61,65.57-37.84,60.64-34.85,62.02-37.61l1.04-2.09V131.22l-1.03-2.08c-1.42-2.85,9.16,3.51-75.37-45.31l-44.6-25.76-2.8-.14c-2.4-.12-3.07,0-4.71,.88m-113.21,9.69c-.16,.16-.28,1.51-.28,3.02v2.73h6.03l-.12-2.9-.12-2.9-2.62-.12c-1.44-.06-2.74,.01-2.9,.17m228.82,.03c-.56,.14-.7,.62-.7,2.32,0,3.32,.08,3.4,3.24,3.4h2.76v-6l-2.3,.05c-1.26,.03-2.61,.13-3,.23m-243.5,16.49c0,3.57,.05,3.63,3.24,3.63h2.76v-6h-6v2.37m257.47-2.1c-.15,.15-.27,1.39-.27,2.76,0,2.89,.1,2.98,3.63,2.98h2.37v-6h-2.73c-1.5,0-2.85,.12-3,.27M57.48,98.78c-2.34,.45-2.35,.47-1.7,3.91,.5,2.63,.16,2.43,3.32,1.91,3.03-.5,3.05-.55,2.25-4.31-.48-2.22-.38-2.18-3.87-1.51m280.7,1.69c-.69,3.31-.58,3.49,2.4,4.03,3.1,.57,2.68,.89,3.33-2.54l.54-2.84-2.46-.43c-1.36-.24-2.66-.43-2.9-.43s-.64,.99-.9,2.2M46.66,116.23c-1.17,.38-2.14,.81-2.16,.97-.04,.38,1.33,5.46,1.48,5.46,.79,0,5.4-1.74,5.4-2.03,0-.22-.31-1.47-.7-2.78-.78-2.65-.8-2.66-4.02-1.62m302.08,2.02l-.84,2.77,2.71,.82c3.3,1,3.05,1.01,3.33-.08,.13-.5,.5-1.75,.82-2.79l.58-1.89-2.62-.81c-1.44-.44-2.74-.81-2.88-.81-.14,0-.64,1.25-1.1,2.78M38.29,135c-2.86,1.22-2.85,1.21-1.48,4.22,1.2,2.62,.98,2.56,4.09,1.15l2.43-1.1-1.1-2.49c-.61-1.37-1.18-2.57-1.28-2.66-.09-.09-1.29,.31-2.67,.9m319.29,1.12c-.55,1.24-1,2.47-1,2.75,0,.38,4.26,2.6,5,2.6,.24,0,2.2-4.46,2.2-5,0-.39-4.27-2.6-5.03-2.6-.1,0-.63,1.01-1.17,2.25M31.5,155.01l-2.48,1.51,1.42,2.37c.78,1.31,1.48,2.43,1.54,2.5,.17,.18,4.56-2.33,4.82-2.77,.18-.29-2.46-5.2-2.76-5.14-.04,0-1.19,.7-2.55,1.53m333.45-.66c-.26,.5-.91,1.67-1.44,2.58l-.96,1.66,2.37,1.44c1.3,.79,2.46,1.44,2.57,1.44,.63,0,3.1-4.97,2.62-5.26-.29-.18-1.46-.87-2.6-1.55l-2.08-1.23-.48,.92m-58.86,107.24c-2.43,1.54-80.54,46.53-80.64,46.45-.07-.06,18.11-31.71,40.4-70.34l40.54-70.23,.11,46.9c.09,37.58,0,46.96-.4,47.22m60.6-85.87l-1.69,2.23,1.89,1.48c1.04,.82,2.1,1.61,2.35,1.76,.28,.17,1.17-.61,2.27-2l1.81-2.28-2.22-1.72c-2.72-2.11-2.38-2.15-4.41,.53m-339.42,.3l-2.25,1.75,1.68,2.23c2.03,2.69,1.7,2.65,4.41,.54l2.23-1.73-1.78-2.27c-2.12-2.71-1.56-2.64-4.28-.52m-1.69,21.86l-1.98,2,2.09,2.09,2.09,2.09,2.09-2.09,2.09-2.09-1.98-2c-1.09-1.1-2.08-2.01-2.2-2.01s-1.12,.9-2.2,2.01m344,0l-1.98,2,2.09,2.09,2.09,2.09,2.09-2.09,2.09-2.09-1.98-2c-1.09-1.1-2.08-2.01-2.2-2.01s-1.12,.9-2.2,2.01M26.68,219.73l-1.7,2.24,2.25,1.75c2.73,2.12,2.2,2.18,4.32-.53l1.78-2.27-2.23-1.73c-2.73-2.12-2.39-2.16-4.43,.54m342-.64c-2.52,1.93-2.5,1.77-.47,4.32,1.98,2.49,1.79,2.53,6.11-1.18,.3-.26-2.63-4.43-3.28-4.66-.14-.05-1.2,.63-2.36,1.52M30.5,240.75c-1.64,2.78-1.79,2.41,1.76,4.45l1.87,1.07,1.43-2.35c1.77-2.92,1.86-2.53-.92-4.22-2.89-1.75-2.41-1.88-4.14,1.05m334.58-1.11c-1.16,.72-2.2,1.4-2.31,1.52-.19,.19,2.55,5.11,2.84,5.11,.07,0,1.22-.65,2.56-1.45l2.44-1.45-1.08-1.85c-1.69-2.9-1.92-3.25-2.14-3.22-.11,.02-1.15,.62-2.31,1.34m-327.96,20.13c-.34,.83-.88,1.99-1.19,2.6l-.57,1.1,2.23,.99c3.37,1.49,3.31,1.51,4.57-1.43l1.14-2.65-2.57-1.05c-3.17-1.3-2.87-1.34-3.62,.45m321.96-.41c-1.38,.58-2.5,1.22-2.5,1.43,0,.66,2.1,5.08,2.41,5.08,.25,0,4.76-1.95,5.1-2.2,.12-.09-2.26-5.41-2.41-5.38-.05,.01-1.22,.49-2.6,1.07m-313.88,20.2c-.9,3.34-.98,3.15,1.66,3.98,3.19,1,3.07,1.06,3.97-2.01l.81-2.75-2.23-.68c-1.23-.37-2.52-.76-2.88-.86-.51-.14-.8,.37-1.33,2.33m305.48-1.65c-2.81,.89-2.75,.75-1.8,3.98,.79,2.7,.7,2.67,3.99,1.56l2.45-.83-.58-1.87c-.32-1.03-.68-2.28-.82-2.77-.28-1.06-.1-1.06-3.25-.06m-294.63,17.65c-.12,.5-.34,1.83-.49,2.96l-.27,2.05,2.66,.5c3.16,.6,2.99,.72,3.61-2.57,.55-2.92,.67-2.75-2.38-3.24-.88-.14-1.89-.34-2.25-.43-.43-.12-.73,.14-.88,.73m284.36-.33c-2.75,.53-2.82,.64-2.26,3.68,.53,2.88,.28,2.72,3.54,2.17l2.77-.47-.35-2.07c-.54-3.21-.72-3.88-1.04-3.82-.16,.03-1.36,.26-2.66,.51m-271.98,16.46c-.14,.36-.25,1.71-.25,3.02v2.37h6.03l-.12-2.9-.12-2.9-2.65-.12c-2.15-.1-2.7,0-2.9,.53m257.65-.34c-.58,.15-.7,.65-.7,2.95v2.77h6v-6l-2.3,.05c-1.26,.03-2.61,.13-3,.23m-243.23,14.39c-.15,.15-.27,1.5-.27,3v2.73h6v-6h-2.73c-1.5,0-2.85,.12-3,.27m228.38,.37c-.13,.35-.24,1.59-.24,2.76,0,2.48,.18,2.61,3.63,2.61h2.37v-6h-2.76c-2.14,0-2.81,.14-3,.63m-211.04,12.25c-2.26,.5-2.1,.14-1.55,3.47,.38,2.31,.6,2.83,1.11,2.68,.35-.1,1.47-.3,2.47-.44,2.76-.39,2.79-.43,2.26-3.5-.52-3.02-.55-3.03-4.3-2.21m195.42,.02c-.26,.87-.96,4.9-.86,4.99,.05,.05,1.37,.34,2.94,.63l2.85,.54,.47-2.76c.54-3.17,.57-3.1-1.7-3.54-2.46-.48-3.52-.44-3.69,.13m-177.62,10.56c-1.1,.34-2.13,.73-2.29,.88-.55,.52,1.29,5.74,1.93,5.5,.32-.12,1.57-.51,2.77-.86,1.2-.35,2.18-.76,2.18-.91-.02-1.18-1.55-5.08-2.02-5.15-.32-.04-1.48,.2-2.58,.53m159.81,2c-.45,1.46-.77,2.7-.72,2.75,.2,.16,4.11,1.35,4.84,1.47,.59,.1,.89-.38,1.49-2.28,1.02-3.24,1.08-3.11-1.61-3.9-3.24-.95-3.08-1.03-4.01,1.96m-141.61,6.81c-1.21,.55-2.26,1.06-2.34,1.14-.11,.11,1.81,4.8,2.18,5.33,.08,.11,4.84-1.85,5.31-2.2,.31-.22-2.14-5.34-2.54-5.31-.23,.02-1.4,.48-2.61,1.04m123.04,1.4c-1.21,2.78-1.26,2.66,1.89,4.07l2.32,1.04,1.18-2.62c.65-1.44,1.18-2.69,1.18-2.76,0-.23-4.47-2.19-5-2.19-.27,0-.98,1.11-1.57,2.46m-103.32,5.08l-2.48,1.51,1.42,2.37c.78,1.31,1.48,2.43,1.54,2.5,.17,.18,4.56-2.33,4.82-2.77,.18-.29-2.46-5.2-2.75-5.14-.04,0-1.19,.7-2.55,1.53m83.71,.81c-.79,1.29-1.43,2.44-1.43,2.55,0,.63,4.97,3.1,5.26,2.62,.18-.29,.87-1.45,1.54-2.58l1.21-2.05-2.43-1.45c-1.34-.8-2.5-1.45-2.58-1.45s-.78,1.06-1.57,2.35m-63.16,3.11c-1.35,1.07-2.17,2-2.01,2.27,.14,.26,.9,1.28,1.68,2.27,.78,.99,1.46,1.86,1.51,1.93,.12,.17,4.32-3.13,4.47-3.51,.06-.16-.67-1.3-1.62-2.53l-1.74-2.24-2.28,1.81m42.53,.78c-.93,1.23-1.54,2.37-1.35,2.52,4.61,3.8,4.09,3.71,6.09,1.06,2.02-2.67,2.06-2.28-.49-4.2-2.63-1.98-2.25-2.04-4.26,.62m-21.41,.97l-1.97,2.01,2.09,2.09,2.09,2.09,2.09-2.09,2.09-2.09-1.97-2.01c-1.09-1.1-2.08-2.01-2.21-2.01s-1.12,.9-2.21,2.01"/>
      <path id="path1" class="cls-2" d="M80.58,124.71c-2.63,1.61-4.52,3.45-4.15,4.04,.11,.18,.04,.32-.16,.32-1.25,0-1.29,2.04-1.29,70.77v68.74l1.1,2.1c.6,1.16,1.46,2.3,1.9,2.54,.44,.24,.89,.56,1,.7,.43,.55,4.47,2.75,5.05,2.75,.34,0,4.52-2.28,9.28-5.07,4.77-2.79,34.05-19.72,65.07-37.63,31.02-17.91,56.67-32.82,56.99-33.14,1.42-1.38,3.82,.08-68.79-41.86-30.47-17.6-56.89-32.88-58.71-33.95-3.96-2.33-3.99-2.33-7.29-.31m57.2,50.11c23.43,13.53,42.6,24.81,42.6,25.05,0,.33-79.9,46.84-86.3,50.24l-1.1,.58v-101.64l1.1,.58c.6,.32,20.27,11.65,43.7,25.19"/>
      <path id="path2" class="cls-3" d="M189.5,7.1C70.19,13.59-14.5,125.44,11.42,242.27c16.43,74.04,76.27,132.4,150.71,146.97,119.85,23.47,230.63-67.51,230.6-189.37-.03-110.59-93-198.77-203.22-192.77m29.87,5.77c114.13,12.58,190.29,121.42,162.76,232.6-17.8,71.92-77.96,127.61-150.96,139.76C102.48,406.66-8.08,294.76,14.83,166.27,31.96,70.21,122.63,2.2,219.38,12.86m-33.19,1.45C70.5,23.44-8.51,132.85,19.38,245.27c17.57,70.79,76.95,125.85,148.8,137.97,127.71,21.54,237.68-89.66,214.57-216.97C365.91,73.49,279.79,6.92,186.18,14.31m15.81,11.56l1.97,2.01-2.09,2.09-2.09,2.09-2.09-2.09-2.09-2.09,1.97-2.01c1.09-1.1,2.08-2,2.21-2s1.12,.9,2.21,2m-21.79,1.01l2.36,1.82-1.84,2.37-1.84,2.37-1.74-1.25q-3.19-2.29-1.25-4.84c2.04-2.7,1.49-2.64,4.32-.46m43.53,.37c2.02,2.68,2.08,2.26-.62,4.39l-2.27,1.78-1.74-2.24c-2.05-2.64-2.06-2.52,.49-4.51,2.5-1.95,2.2-2,4.14,.58m-64.7,3.25c2.76,1.68,2.71,1.49,1.05,4.33-1.54,2.64-1.38,2.61-4.36,.8l-2.37-1.44,1.08-1.86c1.62-2.78,1.93-3.26,2.09-3.26,.08,0,1.21,.64,2.5,1.43m85.71,1.01c.8,1.34,1.36,2.59,1.24,2.77-.4,.65-4.58,2.84-4.96,2.61-.61-.38-2.94-4.64-2.68-4.9,.36-.36,4.42-2.85,4.7-2.88,.14-.02,.91,1.06,1.7,2.4m-105.96,5.04c1.43,.59,2.61,1.24,2.61,1.45,0,.75-2.12,5.08-2.48,5.08-.49,0-4.42-1.65-4.88-2.04-.28-.25,1.66-5.56,2.04-5.56,.06,0,1.28,.48,2.71,1.07m125.95,1.43c1.39,3.28,1.45,3.14-1.57,4.39l-2.63,1.09-1.17-2.58c-.64-1.42-1.17-2.67-1.17-2.79,0-.19,4.69-2.5,5.24-2.58,.13-.02,.72,1.09,1.3,2.47m-48.23,6.12c117.02,12.29,179.07,146.02,113,243.56-66.9,98.77-215.59,89.3-269.53-17.17C4.07,160.16,93.28,31.15,216.5,44.09m-94.81,1.63c1.09,.29,1.08,.05,.07,3.44-.51,1.73-1,2.71-1.3,2.59-.26-.1-1.51-.51-2.77-.91-2.56-.81-2.55-.78-1.66-3.81,.86-2.91,.73-2.81,2.87-2.15,1.04,.32,2.29,.69,2.79,.82m161.78,1.18c.91,3.04,.9,3.24-.18,3.52-.49,.13-1.75,.5-2.8,.82l-1.89,.58-.85-2.8c-.47-1.54-.79-2.86-.7-2.92,.36-.31,4.98-1.76,5.33-1.67,.21,.05,.7,1.16,1.09,2.47m-94.13-1.4C69.24,53.64,3.81,191.57,73.62,289.41c67.84,95.08,212.33,83.92,264.6-20.42,53.29-106.38-30.09-231.54-148.89-223.49m-87.12,10.18c2.82,.4,3.21,1.72,1.78,6.03-.11,.32-.9,.31-2.88-.02l-2.74-.46,.03-1.58c.06-2.98,.54-4.64,1.29-4.43,.37,.11,1.5,.31,2.51,.46m198.77,1.98c.68,3.62,.09,4.14-4.99,4.38-.4,.02-1.55-5.37-1.21-5.7,.14-.15,2.49-.67,5.46-1.23,.14-.03,.48,1.12,.74,2.55m-94.6,2.02c21.41,11.73,115.37,66.67,116.47,68.11,2.21,2.89,2.15,.67,2.04,73.28l-.11,67.4-.9,1.83c-1.25,2.53-1.91,3.07-8.5,6.88-111.32,64.37-111.76,64.61-114.02,64.92-2.82,.38-2.39,.62-57.57-31.19-55.8-32.16-54.02-31.09-53.35-32.14,.64-1.02,16.18-10.07,16.84-9.81,.31,.12,19.13,10.92,41.81,24,22.68,13.08,41.48,23.88,41.77,23.99,.44,.17,.53-8.14,.53-48.19v-48.39l8.17-4.89c4.57-2.73,8.49-4.82,8.9-4.74,.7,.13,.74,2.01,.93,44.13l.2,43.99,40.51-70.16c22.28-38.59,40.46-70.19,40.4-70.23-.06-.04-11.72,6.65-25.91,14.86-14.19,8.22-29.43,17.02-33.86,19.57l-8.06,4.63-8.24-4.91c-6.48-3.87-8.24-5.09-8.24-5.74s8.25-5.59,45.6-27.18c25.08-14.5,45.53-26.43,45.45-26.51-.19-.19-96.36-55.74-96.68-55.84-.12-.04-21.07,11.99-46.55,26.72-25.48,14.74-46.58,26.86-46.9,26.93-.68,.16-16.4-9.1-16.69-9.83-.11-.28-.11-.73,0-1,.16-.39,63.02-36.99,100.29-58.38,8.84-5.07,10-5.23,15.69-2.11m-117.8,11.52c0,3.56,.27,3.29-3.17,3.13l-2.83-.13v-5.93h6v2.93m228.48-.23c.19,3.33,.3,3.2-3.08,3.37l-2.8,.13-.12-3.1-.12-3.1h5.97l.15,2.7m14.42,12.2c-.06,.16-.1,1.47-.1,2.9v2.6h-6v-2.93c0-1.61,.07-3.01,.17-3.1,.29-.29,6.04,.22,5.93,.53m-257.22,2.2c.19,3.47,.36,3.3-3.11,3.3h-2.98v-6h5.93l.15,2.7m-12.65,15.82c.51,3.13,.7,2.88-2.59,3.48-2.94,.53-3.02,.47-3.42-2.36-.14-1.01-.34-2.12-.44-2.48-.15-.5,.28-.73,1.92-1.06,3.88-.76,4.03-.68,4.54,2.41m280.59-2.51c1.17,.22,2.17,.45,2.22,.5,.15,.15-.88,5.47-1.1,5.69-.33,.33-5.57-.8-5.59-1.2-.03-.76,.53-4.8,.71-5.09,.25-.4,1.22-.38,3.75,.1M50.34,116.37c.13,.5,.5,1.75,.82,2.79l.58,1.89-2.82,.84c-3.3,.98-2.91,1.18-3.91-2.03-.91-2.93-.92-2.91,1.77-3.73,2.76-.83,3.28-.8,3.55,.24m302.19-.26c1.24,.35,2.39,.76,2.54,.9,.35,.32-1.24,5.65-1.68,5.65-.17,0-1.49-.36-2.91-.8l-2.6-.8,.82-2.8c.91-3.13,.74-3.03,3.83-2.15m-264.65,8.9c1.82,1.07,28.24,16.35,58.71,33.95,72.61,41.94,70.21,40.48,68.79,41.86-.33,.32-25.97,15.23-56.99,33.14-31.02,17.91-60.3,34.84-65.07,37.63-4.77,2.79-8.94,5.07-9.28,5.07-.58,0-4.62-2.19-5.05-2.75-.11-.14-.56-.45-1-.7-.44-.24-1.29-1.39-1.9-2.54l-1.1-2.1v-68.74c0-68.74,.04-70.77,1.29-70.77,.2,0,.27-.15,.16-.32-.55-.89,5.63-5.59,7.44-5.65,.38-.01,2.18,.85,4,1.93m-45.66,11.51c.66,1.46,1.14,2.71,1.07,2.78-.07,.06-1.31,.65-2.77,1.31l-2.65,1.19-1.23-2.79-1.23-2.79,2.49-1.15c3.24-1.49,2.95-1.59,4.31,1.45m319.29-1.62c1.37,.57,2.54,1.09,2.6,1.14,.19,.18-2.27,5.42-2.54,5.42-.21,0-4.83-1.94-5.28-2.22-.19-.12,2.26-5.38,2.5-5.38,.13,0,1.35,.47,2.72,1.04M92.98,199.87v50.82l1.1-.58c6.4-3.4,86.3-49.91,86.3-50.24s-80.15-46.99-86.3-50.24l-1.1-.58v50.82m-57.22-43.84c.67,1.18,1.23,2.3,1.23,2.5,0,.32-4.38,2.94-4.9,2.94-.25,0-3.17-4.86-3.01-5.01,.69-.63,4.93-2.9,5.16-2.76,.17,.1,.86,1.15,1.53,2.33m332.4-1.11c1.34,.79,2.43,1.54,2.43,1.65,0,.36-2.85,4.91-3.08,4.91-.39,0-4.49-2.43-4.72-2.79-.19-.31,2.43-5.21,2.79-5.21,.08,0,1.25,.65,2.58,1.45m-102.21,82.67c-22.24,38.55-40.39,70.14-40.33,70.22,.06,.07,18.29-10.37,40.53-23.2l40.43-23.33v-46.9c0-25.79-.03-46.89-.09-46.88-.06,0-18.3,31.55-40.54,70.1m105.18-62.48c2.44,1.94,2.4,1.58,.44,4.21-2,2.68-1.71,2.73-6.33-1.09-.37-.31,2.89-4.75,3.49-4.75,.19,0,1.27,.74,2.41,1.64m-339.66,1.11c2,2.59,2,2.53-.38,4.43-2.48,1.98-2.35,2-4.52-.75l-1.7-2.16,1.15-.84c.63-.46,1.61-1.24,2.16-1.72,1.38-1.22,1.6-1.15,3.29,1.04m-1.47,21.65l1.98,2-2.09,2.09-2.09,2.09-2.09-2.09-2.09-2.09,1.98-2c1.09-1.1,2.08-2.01,2.2-2.01s1.12,.9,2.2,2.01m344,0l1.98,2-2.09,2.09-2.09,2.09-2.09-2.09-2.09-2.09,1.98-2c1.09-1.1,2.08-2.01,2.2-2.01s1.12,.9,2.2,2.01M31.13,219.11c2.34,1.87,2.33,1.81,.34,4.4-1.8,2.34-1.63,2.32-4.19,.3-2.5-1.97-2.46-1.66-.5-4.25,1.9-2.52,1.79-2.51,4.36-.45m341.82,.6l1.76,2.25-1.56,1.33c-2.56,2.18-3.29,2.46-3.93,1.55-.3-.43-1.1-1.47-1.78-2.32l-1.23-1.54,2.26-1.76c2.77-2.15,2.39-2.2,4.49,.49M34.43,239.49c3.03,1.73,3.01,1.58,.67,5.3l-.96,1.53-2.28-1.27c-3.14-1.75-3.08-1.58-1.45-4.32,1.72-2.88,1.34-2.77,4.02-1.24m334.71,1.2c.8,1.34,1.45,2.49,1.45,2.57,0,.18-4.63,3-4.92,3-.49,0-3.15-4.89-2.83-5.19,.53-.49,4.31-2.8,4.6-2.81,.14,0,.9,1.08,1.7,2.42m-325.85,19.75c.14,.13-2.27,5.42-2.47,5.42-.09,0-1.35-.53-2.8-1.18l-2.64-1.18,1.04-2.32c.57-1.27,1.12-2.52,1.23-2.78,.15-.36,4.86,1.34,5.64,2.04m319.72,.41c.65,1.42,1.17,2.67,1.17,2.76,0,.43-5.26,2.35-5.56,2.02-.18-.2-.8-1.41-1.37-2.69l-1.04-2.32,2.49-1.15c3.25-1.5,2.97-1.59,4.31,1.39m-313.99,17.02l2.72,.81-.58,1.89c-.32,1.04-.69,2.3-.82,2.79-.13,.49-.46,.9-.72,.9-.72,0-4.78-1.23-5.12-1.55-.28-.27,1.27-5.65,1.63-5.65,.1,0,1.4,.36,2.9,.81m305.53,1.86c.97,3.23,1.05,3.08-2.16,3.95-3.07,.83-2.71,1.05-3.72-2.31l-.8-2.7,2.46-.76c3.45-1.07,3.34-1.12,4.22,1.83m-293.96,15.69c.77,.15,1.39,.45,1.38,.65-.25,5.03-.77,5.65-4.24,5.04-2.99-.53-2.76-.26-2.3-2.66,.86-4.39,.2-4,5.15-3.03m283.47,2.22c.28,1.53,.45,2.84,.37,2.92-.55,.55-5.54,.98-5.83,.51-.26-.43-.85-3.88-.86-5.1,0-.32,4.23-1.25,5.24-1.16,.39,.04,.75,.97,1.09,2.83m-269.82,16.41c-.13,3.49,.14,3.24-3.2,3.08l-2.84-.13v-5.97l3.07,.12,3.07,.12-.1,2.79m257.16-.02v2.97l-2.7,.15c-3.47,.2-3.3,.36-3.3-3.11v-2.98h6v2.97m-14.24,12.13c-.02,.28-.07,1.58-.1,2.9l-.06,2.4h-6v-2.93c0-1.61,.07-3.01,.17-3.1,.42-.42,6.03,.26,5.99,.73m-228.56,2.3v3h-6v-6h6v3m15.97,12.1c.58,3.04,.53,3.13-1.86,3.48-1.05,.15-2.29,.37-2.76,.48-.79,.19-.9-.04-1.34-2.65-.57-3.37-.69-3.19,2.49-3.79,3-.57,2.88-.65,3.48,2.49m196.27-2.1c.74,.16,.44,5.3-.35,6.03-.15,.13-5.51-.92-5.72-1.12-.15-.15,.45-4.06,.83-5.36,.12-.42,1.97-.26,5.23,.45m-179.08,11.88c1.15,3.41,1.16,3.39-1.83,4.32-3.07,.95-2.96,1.01-3.92-2.3-.86-2.93-1.07-2.58,2.2-3.6,1.43-.45,2.63-.83,2.66-.85,.03-.02,.44,1.07,.9,2.44m162.44-.09c0,.77-1.18,4.46-1.56,4.9-.27,.3-5.64-1.17-5.64-1.55,0-.12,.37-1.44,.82-2.93l.82-2.71,2.78,.81c2,.58,2.78,1,2.78,1.48m-21.05,7.21c1.46,.66,2.65,1.32,2.65,1.45,0,.2-1.96,4.84-2.22,5.26-.14,.23-5.38-2.29-5.38-2.59s2.11-5.32,2.23-5.32c.03,0,1.25,.54,2.71,1.2m-122.73,1.8c.61,1.43,1.03,2.68,.94,2.76-.26,.25-4.83,2.23-5.15,2.23-.35,0-2.59-5.16-2.34-5.4,.32-.32,4.52-2.15,4.98-2.17,.25-.01,.95,1.15,1.56,2.58m19.76,5.95c.67,1.18,1.22,2.3,1.22,2.49,0,.3-4.42,2.95-4.92,2.95-.23,0-3.14-4.87-2.99-5.01,.68-.63,4.93-2.9,5.16-2.76,.17,.1,.86,1.15,1.53,2.33m83.67-1.13c1.29,.79,2.35,1.49,2.35,1.57,0,.31-2.9,5-3.09,5-.34,0-4.91-2.85-4.91-3.05,0-.57,2.7-4.95,3.05-4.95,.13,0,1.3,.64,2.6,1.43m-63.12,4.61c.81,1.01,1.47,2.03,1.47,2.25,0,.63-4.44,3.84-4.77,3.45-1.29-1.5-3.23-4.07-3.23-4.28,0-.47,4.58-3.85,4.82-3.56,.13,.16,.9,1.12,1.71,2.13m42.63-.43c2.44,1.93,2.41,1.62,.42,4.26-1.93,2.55-1.53,2.51-4.2,.49-2.6-1.97-2.55-1.59-.57-4.22,1.93-2.56,1.8-2.54,4.35-.53m-21.36,1.6l1.97,2.01-2.09,2.09-2.09,2.09-2.09-2.09-2.09-2.09,1.97-2.01c1.09-1.1,2.08-2.01,2.21-2.01s1.12,.9,2.21,2.01"/>
    </g>
  </g>
</svg>